<?xml version="1.0" encoding="UTF-8" standalone="no"?>
<svg
        xmlns="http://www.w3.org/2000/svg"
        viewBox="0 0 320 406.59113"
        version="1.1"
        height="406.59113"
        width="320">
    <path
       d="M 160 0 C 71.634481 7.9999999e-005 7.9999999e-005 71.634471 0 160 C 0.016 168.77748 0.75400127 177.53891 2.2070312 186.19531 L 38.513672 177.44141 L 28.539062 183.97852 C 28.539062 183.97852 12.05077 194.13519 6.46875 204.72266 C 26.3441 272.99564 88.892841 319.95913 160 320 C 204.33781 319.99996 244.45375 301.95798 273.43164 272.82422 C 252.97183 286.10217 227.92761 296.60628 227.31641 286.98633 C 213.48354 285.51734 198.45947 275.53772 183.70703 261.32812 C 168.12327 262.36859 145.60606 258.23241 129.23438 245.2793 C 110.52106 230.47354 96.21094 211.00831 80.681641 199.16406 C 65.152351 187.3198 48.402944 183.09496 29.308594 186.79883 C 55.637753 162.83504 72.310109 165.03061 127.79297 189.00977 C 119.61507 175.96536 112.65876 163.7902 107.52344 154.16797 C 108.30693 145.90993 114.3615 135.74679 123.66016 125.48047 C 118.21469 114.988 126.03727 100.48653 139.96484 85.857422 C 145.54633 79.994802 139.86895 74.929017 135.66016 77.435547 L 129.57422 81.058594 C 127.53041 77.834824 125.18885 74.185277 128.1543 70.398438 C 136.69181 62.431298 145.69349 57.395364 155.02148 54.433594 C 159.94657 52.821894 162.87104 56.698773 164.76562 60.101562 L 159.45508 63.261719 C 155.89275 65.383269 155.69493 73.117504 164.78125 70.839844 C 185.469 65.654024 202.65154 65.060858 209.00977 75.710938 L 209.02734 75.744141 C 218.744 74.140921 227.9337 74.366255 235.91406 77.046875 C 237.94979 58.589475 243.72267 45.342841 254.78711 38.582031 C 255.14404 38.363951 255.507 38.149852 255.875 37.945312 C 257.41405 37.089823 259.05373 36.359051 260.79102 35.744141 C 233.27786 13.398881 198.20638 3e-005 160 0 z M 273.09375 42.285156 C 270.77137 42.294156 268.49086 42.730268 266.30078 43.642578 C 264.27715 44.485488 262.44409 45.424614 260.78516 46.464844 C 247.97353 54.498484 245.52682 68.503263 245.47461 89.539062 C 255.98274 107.17257 272.05475 132.49301 284.23047 160.90234 C 297.44273 147.55933 308.68881 124.42177 310.87109 100.61523 C 313.63539 70.459505 292.00452 42.210966 273.09375 42.285156 z M 270.52539 44.314453 C 287.92009 45.494383 307.0192 69.801623 307.13867 97.064453 C 298.56721 77.051433 286.03666 59.138073 270.52539 44.314453 z M 21.955078 101.60938 C 22.034278 101.59288 22.054324 101.69523 22.021484 101.91211 C 21.020894 108.51528 20.997623 112.78786 21.939453 117.13672 C 22.818753 121.19409 24.214041 124.0676 26.957031 127.4668 C 30.860051 132.30355 31.570492 137.15685 29.601562 145.54688 C 28.780663 149.04489 25.757552 157.48338 25.289062 157.58398 C 25.216863 157.59948 25.554743 156.24464 26.039062 154.57422 C 27.235912 150.44612 27.785227 145.00565 27.429688 140.79688 C 27.060018 136.42062 25.89022 133.20212 23.15625 129.0293 C 20.68847 125.26267 19.644124 122.93799 18.933594 119.62891 C 17.691274 113.84323 18.640697 106.1776 21.029297 102.7168 C 21.525037 101.99853 21.823138 101.63689 21.955078 101.60938 z M 21.466797 131.60156 L 21.943359 133.70703 C 22.570729 136.47053 22.7654 141.90738 22.34375 144.85156 C 22.15876 146.14326 21.599006 148.43719 21.097656 149.94922 C 20.596296 151.46126 20.080095 153.51203 19.953125 154.50781 C 19.615725 157.15365 20.253667 161.96299 21.498047 166.17188 C 22.097577 168.19964 22.548523 169.92148 22.501953 169.99609 C 22.455353 170.07069 21.649324 168.29989 20.708984 166.06055 C 18.664834 161.19269 17.342711 155.46197 17.488281 152.10156 C 17.591651 149.71543 17.810676 148.70308 20.003906 140.49023 C 20.687846 137.92914 21.297622 134.88233 21.357422 133.71875 L 21.466797 131.60156 z M 32.064453 131.68945 C 32.381173 131.62145 35.485035 137.45224 36.359375 139.75781 C 38.353355 145.01577 38.071266 148.93001 35.259766 155.03516 C 33.043856 159.84695 31.281213 166.22646 31.283203 169.43359 C 31.285203 172.7054 31.007154 172.80399 30.083984 169.86328 C 28.777954 165.70297 28.677961 160.67319 29.832031 157.31055 C 30.032171 156.72743 30.808201 155.10921 31.556641 153.71484 C 34.365141 148.48242 34.832099 142.8468 33.037109 135.90039 C 32.442009 133.59751 32.005383 131.70213 32.064453 131.68945 z M 317.51758 131.87305 C 311.73433 151.12539 302.06447 168.13786 291.18164 178.86719 C 294.45747 185.46126 303.32054 215.42836 302.32422 233.1543 C 313.61742 211.22952 319.99997 186.36096 320 160 C 319.99999 150.40194 319.13933 141.00546 317.51758 131.87305 z M 0 336.50977 L 0 353.81641 L 22.085938 353.81641 L 22.085938 406.5918 L 43.740234 406.5918 L 43.740234 353.81641 L 65.826172 353.81641 L 65.826172 336.50977 L 0 336.50977 z M 75.625 336.50977 L 75.625 406.5918 L 134.71094 406.5918 L 134.71094 390.7207 L 97.328125 390.7207 L 97.328125 376.9043 L 131.03125 376.9043 L 131.03125 362.61133 L 97.328125 362.61133 L 97.328125 351.47266 L 133.66016 351.47266 L 133.66016 336.50977 L 75.625 336.50977 z M 146.32812 336.50977 L 146.32812 406.5918 L 168.07812 406.5918 L 168.07812 380.58594 L 179.93359 380.58594 C 188.66579 380.58594 195.15201 378.59304 199.39062 374.60938 C 203.66111 370.62571 205.79688 365.09648 205.79688 358.02148 C 205.79687 351.13771 203.83594 345.83223 199.91602 342.10352 C 196.02796 338.3748 190.16407 336.50977 182.32422 336.50977 L 146.32812 336.50977 z M 218.0332 336.50977 L 218.0332 406.5918 L 239.73633 406.5918 L 239.73633 336.50977 L 218.0332 336.50977 z M 255.51172 336.50977 L 255.51172 406.5918 L 287.68359 406.5918 C 291.53979 406.5918 295.84327 405.95446 300.5918 404.67969 C 304.06556 403.75547 307.31616 401.90544 310.34375 399.13281 C 313.37134 396.32831 315.7289 392.87091 317.41797 388.75977 C 319.13892 384.61675 320 378.80179 320 371.3125 C 320 366.5321 319.4266 362.00682 318.2793 357.73633 C 317.132 353.46583 315.28392 349.72075 312.73438 346.50195 C 310.18483 343.28315 306.94922 340.81274 303.0293 339.0918 C 299.14124 337.37085 294.02559 336.50977 287.68359 336.50977 L 255.51172 336.50977 z M 168.07812 350.75586 L 174.24609 350.75586 C 178.2935 350.75586 181.04964 351.52105 182.51562 353.05078 C 183.98162 354.58051 184.71484 356.44554 184.71484 358.64453 C 184.71484 360.90725 183.87071 362.77034 182.18164 364.23633 C 180.49256 365.67045 177.55965 366.38867 173.38477 366.38867 L 168.07812 366.38867 L 168.07812 350.75586 z M 277.16797 352.38086 L 282.57031 352.38086 C 288.17932 352.38086 292.19317 353.75142 294.61523 356.49219 C 297.03731 359.23295 298.25 364.31663 298.25 371.74219 C 298.25 377.35119 297.70661 381.41397 296.62305 383.93164 C 295.53949 386.41745 294.04302 388.17159 292.13086 389.19141 C 290.2187 390.17936 287.00006 390.67188 282.47461 390.67188 L 277.16797 390.67188 L 277.16797 352.38086 z "
       style="fill:#ffffff" />
</svg>
