<?xml version="1.0" encoding="UTF-8" standalone="no"?>
<svg
   xmlns:dc="http://purl.org/dc/elements/1.1/"
   xmlns:cc="http://creativecommons.org/ns#"
   xmlns:rdf="http://www.w3.org/1999/02/22-rdf-syntax-ns#"
   xmlns="http://www.w3.org/2000/svg"
   xmlns:xlink="http://www.w3.org/1999/xlink"
   xmlns:sodipodi="http://sodipodi.sourceforge.net/DTD/sodipodi-0.dtd"
   xmlns:inkscape="http://www.inkscape.org/namespaces/inkscape"
   enable-background="new 0 0 32 32"
   height="16"
   id="svg2"
   version="1.1"
   viewBox="0 0 16 16"
   width="16"
   xml:space="preserve"
   inkscape:version="0.91 r13725"
   sodipodi:docname="teapot2.svg"
   inkscape:export-filename="/home/waffles/git/tepid/trayicon32.png"
   inkscape:export-xdpi="180"
   inkscape:export-ydpi="180"><metadata
     id="metadata4198"><rdf:RDF><cc:Work
         rdf:about=""><dc:format>image/svg+xml</dc:format><dc:type
           rdf:resource="http://purl.org/dc/dcmitype/StillImage" /><dc:title></dc:title></cc:Work></rdf:RDF></metadata><defs
     id="defs4196"><linearGradient
       inkscape:collect="always"
       id="linearGradient4291"><stop
         style="stop-color:#bf360c;stop-opacity:1;"
         offset="0"
         id="stop4293" /><stop
         style="stop-color:#bf360c;stop-opacity:0;"
         offset="1"
         id="stop4295" /></linearGradient><linearGradient
       inkscape:collect="always"
       xlink:href="#linearGradient4291"
       id="linearGradient4297"
       x1="2.5"
       y1="7.6875"
       x2="2.5"
       y2="15.6875"
       gradientUnits="userSpaceOnUse" /></defs><sodipodi:namedview
     pagecolor="#ffffff"
     bordercolor="#666666"
     borderopacity="1"
     objecttolerance="10"
     gridtolerance="10"
     guidetolerance="10"
     inkscape:pageopacity="0"
     inkscape:pageshadow="2"
     inkscape:window-width="1918"
     inkscape:window-height="972"
     id="namedview4194"
     showgrid="false"
     inkscape:zoom="16"
     inkscape:cx="5.6257175"
     inkscape:cy="4.3686726"
     inkscape:window-x="0"
     inkscape:window-y="24"
     inkscape:window-maximized="1"
     inkscape:current-layer="svg2"
     showguides="false" /><g
     id="g4299"
     transform="translate(-0.5,0)"><path
       sodipodi:nodetypes="sscccccs"
       inkscape:connector-curvature="0"
       id="path4201"
       d="M 3,9 C 1.8954305,9 1,9.8954305 1,11 l 0,5 2,0 0,-3.107422 9.765e-4,-1.889648 1.4189454,-1.4111331 C 4.0575414,9.2264253 3.5552599,9 3,9 Z"
       style="color:#000000;clip-rule:nonzero;display:inline;overflow:visible;visibility:visible;opacity:1;isolation:auto;mix-blend-mode:normal;color-interpolation:sRGB;color-interpolation-filters:linearRGB;solid-color:#000000;solid-opacity:1;fill:url(#linearGradient4297);fill-opacity:1;fill-rule:evenodd;stroke:none;stroke-width:0.1;stroke-linecap:butt;stroke-linejoin:miter;stroke-miterlimit:4;stroke-dasharray:none;stroke-dashoffset:0;stroke-opacity:1;color-rendering:auto;image-rendering:auto;shape-rendering:auto;text-rendering:auto;enable-background:accumulate" /><path
       sodipodi:nodetypes="cccssccccccscccscccccccccc"
       inkscape:connector-curvature="0"
       id="rect4454"
       d="M 13.167969,0.8515625 5.7421875,8.2773438 2.9980469,11.003906 4.4160156,12.396484 c 1.2444607,1.222177 1.67851,1.146051 2.3789063,0.464844 L 7.5078125,12.167969 10.333984,15 10.34375,14.990234 15.990234,9.34375 16,9.3339844 14.585938,7.9199219 C 15.62181,6.8782626 15.904234,5.6738515 15.845703,4.7128906 15.786993,3.7488396 15.168899,2.8525233 13.167969,0.8515625 Z M 8.2167969,1.5585938 6.8027344,2.9746094 c -0.7834623,-0.7834743 -2.0446627,-0.7834742 -2.828125,0 -0.783462,0.7834742 -0.7834622,2.0446507 0,2.828125 l -1.4140625,1.4140625 1.4140625,1.4140625 5.65625,-5.65625 z m 4.9492191,2.1230468 c 0.402395,0.402401 0.58611,0.9531979 0.585937,1.4140625 -1.65e-4,0.4574811 -0.101006,0.9218119 -0.580078,1.40625 L 11.757812,5.0898438 Z"
       style="color:#000000;clip-rule:nonzero;display:inline;overflow:visible;visibility:visible;opacity:1;isolation:auto;mix-blend-mode:normal;color-interpolation:sRGB;color-interpolation-filters:linearRGB;solid-color:#000000;solid-opacity:1;fill:#4e9a21;fill-opacity:1;fill-rule:evenodd;stroke:none;stroke-width:0.1;stroke-miterlimit:4;stroke-dasharray:none;color-rendering:auto;image-rendering:auto;shape-rendering:auto;text-rendering:auto;enable-background:accumulate" /></g></svg>