<?xml version="1.0" encoding="UTF-8" standalone="no"?>
<svg
   xmlns:dc="http://purl.org/dc/elements/1.1/"
   xmlns:cc="http://creativecommons.org/ns#"
   xmlns:rdf="http://www.w3.org/1999/02/22-rdf-syntax-ns#"
   xmlns="http://www.w3.org/2000/svg"
   xmlns:sodipodi="http://sodipodi.sourceforge.net/DTD/sodipodi-0.dtd"
   xmlns:inkscape="http://www.inkscape.org/namespaces/inkscape"
   enable-background="new 0 0 32 32"
   height="16"
   id="svg2"
   version="1.1"
   viewBox="0 0 16 16"
   width="16"
   xml:space="preserve"
   inkscape:version="0.91 r13725"
   sodipodi:docname="trayicon.svg"
   inkscape:export-filename="/home/waffles/git/tepid/trayicon32.png"
   inkscape:export-xdpi="180"
   inkscape:export-ydpi="180"><metadata
     id="metadata4198"><rdf:RDF><cc:Work
         rdf:about=""><dc:format>image/svg+xml</dc:format><dc:type
           rdf:resource="http://purl.org/dc/dcmitype/StillImage" /><dc:title></dc:title></cc:Work></rdf:RDF></metadata><defs
     id="defs4196" /><sodipodi:namedview
     pagecolor="#ffffff"
     bordercolor="#666666"
     borderopacity="1"
     objecttolerance="10"
     gridtolerance="10"
     guidetolerance="10"
     inkscape:pageopacity="0"
     inkscape:pageshadow="2"
     inkscape:window-width="1918"
     inkscape:window-height="972"
     id="namedview4194"
     showgrid="false"
     inkscape:zoom="8.5294756"
     inkscape:cx="7.5893802"
     inkscape:cy="8.3017294"
     inkscape:window-x="0"
     inkscape:window-y="24"
     inkscape:window-maximized="1"
     inkscape:current-layer="svg2"
     showguides="false" /><path
     style="color:#000000;clip-rule:nonzero;display:inline;overflow:visible;visibility:visible;opacity:1;isolation:auto;mix-blend-mode:normal;color-interpolation:sRGB;color-interpolation-filters:linearRGB;solid-color:#000000;solid-opacity:1;fill:#333333;fill-opacity:1;fill-rule:evenodd;stroke:none;stroke-width:0.1;stroke-linecap:butt;stroke-linejoin:miter;stroke-miterlimit:4;stroke-dasharray:none;stroke-dashoffset:0;stroke-opacity:1;color-rendering:auto;image-rendering:auto;shape-rendering:auto;text-rendering:auto;enable-background:accumulate"
     d="M 4.2625216,0 C 3.2272401,0 2.474401,0.77162698 2.3937824,2 L 2,8 C 0.892,8 0,8.892 0,10 l 0,4 1,0 -1,2 16,0 -1,-2 1,0 0,-4 C 16,8.892 15.108,8 14,8 L 13.606218,2 C 13.5256,0.77164118 12.77276,0 11.737478,0 Z"
     id="rect4611"
     inkscape:connector-curvature="0"
     sodipodi:nodetypes="ssccccccccccsss" /><path
     style="color:#000000;clip-rule:nonzero;display:inline;overflow:visible;visibility:visible;opacity:1;isolation:auto;mix-blend-mode:normal;color-interpolation:sRGB;color-interpolation-filters:linearRGB;solid-color:#000000;solid-opacity:1;fill:#ffffff;fill-opacity:1;fill-rule:evenodd;stroke:none;stroke-width:0.1;stroke-linecap:butt;stroke-linejoin:miter;stroke-miterlimit:4;stroke-dasharray:none;stroke-dashoffset:0;stroke-opacity:1;color-rendering:auto;image-rendering:auto;shape-rendering:auto;text-rendering:auto;enable-background:accumulate"
     d="M 4.2818653,1 C 3.7669036,1 3.3848054,1.4469902 3.3523316,2 L 3,8 13,8 12.647668,2 C 12.615195,1.4469902 12.233096,1 11.718135,1 Z"
     id="rect4516"
     inkscape:connector-curvature="0"
     sodipodi:nodetypes="ssccsss" /><path
     d="m 2.5,13 11,0 1,2 -13,0 z"
     id="path4192"
     style="fill:#ffffff"
     inkscape:connector-curvature="0"
     sodipodi:nodetypes="ccccc" /><rect
     style="color:#000000;clip-rule:nonzero;display:inline;overflow:visible;visibility:visible;opacity:1;isolation:auto;mix-blend-mode:normal;color-interpolation:sRGB;color-interpolation-filters:linearRGB;solid-color:#000000;solid-opacity:1;fill:#ff0000;fill-opacity:1;fill-rule:evenodd;stroke:none;color-rendering:auto;image-rendering:auto;shape-rendering:auto;text-rendering:auto;enable-background:accumulate"
     id="rect4221"
     width="1.5"
     height="1.5"
     x="13"
     y="9.5"
     ry="0.75" /><path
     style="color:#000000;clip-rule:nonzero;display:inline;overflow:visible;visibility:visible;opacity:1;isolation:auto;mix-blend-mode:normal;color-interpolation:sRGB;color-interpolation-filters:linearRGB;solid-color:#000000;solid-opacity:1;fill:#4e9a21;fill-opacity:1;fill-rule:evenodd;stroke:none;stroke-width:0.1;stroke-miterlimit:4;stroke-dasharray:none;color-rendering:auto;image-rendering:auto;shape-rendering:auto;text-rendering:auto;enable-background:accumulate"
     d="m 8,1.5 c -0.554,0 -1,0.446 -1,1 l -1,0 0,1 4,0 0,-1 -1,0 C 9,1.946 8.554,1.5 8,1.5 Z M 6,4 6,6.015625 C 5.6589016,6.0140108 5.4606939,5.8825685 5.2988281,5.7207031 5.1359461,5.5578215 5.0058594,5.3001657 5.0058594,5.015625 l 0,-1 -1,0 c 0,1.414893 0.098122,1.9508995 0.4179687,2.3125 C 4.742774,6.6887067 5.2655479,7.0137975 6,7.015625 L 6,8 10,8 10,7 C 10.737733,7 11.262184,6.6741005 11.582031,6.3125 11.901878,5.9508995 12,5.414893 12,4 l -1,0 -1,0 z m 4,1 1,0 C 11,5.2845407 10.869913,5.5441497 10.707031,5.7070312 10.544149,5.8699129 10.345062,6 10,6 Z"
     id="rect4454"
     inkscape:connector-curvature="0"
     sodipodi:nodetypes="sccccccsccssccsccccsccccccscc" /></svg>