<?xml version="1.0" encoding="UTF-8" standalone="no"?>
<svg
        xmlns:dc="http://purl.org/dc/elements/1.1/"
        xmlns:cc="http://creativecommons.org/ns#"
        xmlns:rdf="http://www.w3.org/1999/02/22-rdf-syntax-ns#"
        xmlns="http://www.w3.org/2000/svg"
        xmlns:sodipodi="http://sodipodi.sourceforge.net/DTD/sodipodi-0.dtd"
        xmlns:inkscape="http://www.inkscape.org/namespaces/inkscape"
        id="svg2"
        viewBox="0 0 100 100"
        version="1.1"
        height="100"
        width="100"
        inkscape:version="0.91 r13725"
        sodipodi:docname="printer_mask.svg">
  <defs
     id="defs7" />
  <sodipodi:namedview
     pagecolor="#ffffff"
     bordercolor="#666666"
     borderopacity="1"
     objecttolerance="10"
     gridtolerance="10"
     guidetolerance="10"
     inkscape:pageopacity="0"
     inkscape:pageshadow="2"
     inkscape:window-width="1918"
     inkscape:window-height="972"
     id="namedview5"
     showgrid="false"
     inkscape:zoom="2.36"
     inkscape:cx="50"
     inkscape:cy="50"
     inkscape:window-x="0"
     inkscape:window-y="24"
     inkscape:window-maximized="1"
     inkscape:current-layer="svg2" />
  <metadata
     id="metadata17">
    <rdf:RDF>
      <cc:Work
         rdf:about="">
        <dc:format>image/svg+xml</dc:format>
        <dc:type
           rdf:resource="http://purl.org/dc/dcmitype/StillImage" />
        <dc:title></dc:title>
      </cc:Work>
    </rdf:RDF>
  </metadata>
  <path
     style="color:#000000;clip-rule:nonzero;display:inline;overflow:visible;visibility:visible;opacity:1;isolation:auto;mix-blend-mode:normal;color-interpolation:sRGB;color-interpolation-filters:linearRGB;solid-color:#000000;solid-opacity:1;fill:#ffffff;fill-opacity:1;fill-rule:evenodd;stroke:none;color-rendering:auto;image-rendering:auto;shape-rendering:auto;text-rendering:auto;enable-background:accumulate"
     d="M 0 0 L 0 100 L 100 100 L 100 0 L 0 0 z M 50 3.75 A 46.25 46.25 0 0 1 96.25 50 A 46.25 46.25 0 0 1 50 96.25 A 46.25 46.25 0 0 1 3.75 50 A 46.25 46.25 0 0 1 50 3.75 z M 50 5.2480469 C 25.290076 5.2480469 5.2480469 25.290076 5.2480469 50 C 5.2480469 74.709924 25.290076 94.751953 50 94.751953 C 74.709924 94.751953 94.751953 74.709924 94.751953 50 C 94.751953 25.290076 74.709924 5.2480469 50 5.2480469 z M 50 6.2480469 C 74.169484 6.2480469 93.751953 25.830516 93.751953 50 C 93.751953 74.169484 74.169484 93.751953 50 93.751953 C 25.830516 93.751953 6.2480469 74.169484 6.2480469 50 C 6.2480469 25.830516 25.830516 6.2480469 50 6.2480469 z M 29.998047 21.25 C 29.355684 21.25 28.796289 21.615707 28.427734 22.126953 C 28.059179 22.6382 27.851564 23.305294 27.851562 24.033203 L 27.851562 40.017578 L 22.738281 40.017578 C 21.476281 40.017578 20.453125 41.041734 20.453125 42.302734 L 20.453125 65.707031 C 20.453125 66.969031 21.477281 67.992188 22.738281 67.992188 L 23.582031 67.992188 C 23.611811 68.518704 23.92827 68.96781 24.353516 69.257812 C 24.799794 69.562162 25.372245 69.728516 25.996094 69.728516 L 30.921875 69.728516 L 30.921875 76.634766 C 30.921875 77.457766 31.552078 78.125 32.330078 78.125 L 65.095703 78.125 C 65.873703 78.125 66.505859 77.457766 66.505859 76.634766 L 66.505859 69.728516 L 70.763672 69.728516 C 71.387777 69.728516 71.961894 69.562129 72.408203 69.257812 C 72.688217 69.066885 72.760996 68.72076 72.898438 68.416016 L 73.191406 68.416016 L 73.191406 67.992188 L 75.830078 67.992188 C 77.092078 67.992188 78.113281 66.969031 78.113281 65.707031 L 78.113281 42.302734 C 78.113281 41.041734 77.092078 40.017578 75.830078 40.017578 L 70.429688 40.017578 L 70.429688 24.033203 C 70.429687 23.305003 70.221852 22.638171 69.853516 22.126953 C 69.485226 21.615736 68.925383 21.25 68.283203 21.25 L 29.998047 21.25 z M 29.998047 22.25 L 68.283203 22.25 C 68.551024 22.25 68.815805 22.395655 69.042969 22.710938 C 69.270132 23.026219 69.429688 23.499403 69.429688 24.033203 L 69.429688 40.017578 L 69.429688 47.445312 C 69.428987 47.710466 69.388542 47.961989 69.320312 48.185547 C 69.286199 48.297326 69.245969 48.401347 69.199219 48.498047 C 69.15247 48.594751 69.099519 48.683209 69.042969 48.761719 C 68.929357 48.919449 68.807282 49.035038 68.679688 49.111328 C 68.552092 49.187619 68.418975 49.224609 68.285156 49.224609 L 29.998047 49.224609 C 29.730226 49.224609 29.46762 49.078997 29.240234 48.763672 C 29.012849 48.448346 28.851565 47.973121 28.851562 47.439453 L 28.851562 40.017578 L 28.851562 24.033203 C 28.851564 23.500113 29.012789 23.026439 29.240234 22.710938 C 29.467679 22.395433 29.73041 22.25 29.998047 22.25 z M 34.904297 30.099609 L 34.904297 31.099609 L 63.378906 31.099609 L 63.378906 30.099609 L 34.904297 30.099609 z M 34.904297 36.378906 L 34.904297 37.378906 L 63.378906 37.378906 L 63.378906 36.378906 L 34.904297 36.378906 z M 34.904297 42.658203 L 34.904297 43.658203 L 63.378906 43.658203 L 63.378906 42.658203 L 34.904297 42.658203 z M 25.996094 53.648438 L 70.765625 53.648438 C 71.204933 53.648436 71.594822 53.776264 71.845703 53.947266 C 72.096586 54.118268 72.191406 54.298781 72.191406 54.462891 L 72.191406 67.416016 L 72.189453 67.416016 L 72.189453 67.916016 C 72.189453 67.940496 72.170416 67.967078 72.166016 67.992188 C 72.140782 68.135626 72.057102 68.286168 71.84375 68.431641 C 71.593059 68.602574 71.203567 68.728516 70.763672 68.728516 L 66.505859 68.728516 L 66.505859 61.349609 C 66.505859 60.526609 65.873703 59.857422 65.095703 59.857422 L 32.330078 59.857422 C 31.552078 59.857422 30.921875 60.526609 30.921875 61.349609 L 30.921875 68.728516 L 25.996094 68.728516 C 25.556942 68.728516 25.166987 68.602794 24.916016 68.431641 C 24.702689 68.28616 24.61908 68.135028 24.59375 67.992188 C 24.58928 67.966977 24.570312 67.940516 24.570312 67.916016 L 24.570312 54.462891 C 24.570312 54.380721 24.593348 54.294031 24.648438 54.207031 C 24.703527 54.120034 24.790669 54.032736 24.916016 53.947266 C 25.166706 53.776332 25.556199 53.648434 25.996094 53.648438 z "
     id="rect4154" />
</svg>
