<?xml version="1.0" encoding="UTF-8" standalone="no"?>
<svg
        xmlns:dc="http://purl.org/dc/elements/1.1/"
        xmlns:cc="http://creativecommons.org/ns#"
        xmlns:rdf="http://www.w3.org/1999/02/22-rdf-syntax-ns#"
        xmlns="http://www.w3.org/2000/svg"
        xmlns:sodipodi="http://sodipodi.sourceforge.net/DTD/sodipodi-0.dtd"
        xmlns:inkscape="http://www.inkscape.org/namespaces/inkscape"
        viewBox="0 0 256 256"
        version="1.1"
        height="256"
        width="256"
        id="svg2"
        inkscape:version="0.91 r13725"
        sodipodi:docname="teapot.svg">
  <metadata
     id="metadata10">
    <rdf:RDF>
      <cc:Work
         rdf:about="">
        <dc:format>image/svg+xml</dc:format>
        <dc:type
           rdf:resource="http://purl.org/dc/dcmitype/StillImage" />
        <dc:title></dc:title>
      </cc:Work>
    </rdf:RDF>
  </metadata>
  <defs
     id="defs8" />
  <sodipodi:namedview
     pagecolor="#ffffff"
     bordercolor="#666666"
     borderopacity="1"
     objecttolerance="10"
     gridtolerance="10"
     guidetolerance="10"
     inkscape:pageopacity="0"
     inkscape:pageshadow="2"
     inkscape:window-width="1918"
     inkscape:window-height="972"
     id="namedview6"
     showgrid="false"
     inkscape:zoom="1.64172"
     inkscape:cx="187.23142"
     inkscape:cy="189.88754"
     inkscape:window-x="0"
     inkscape:window-y="24"
     inkscape:window-maximized="1"
     inkscape:current-layer="svg2" />
  <path
     style="color:#000000;clip-rule:nonzero;display:inline;overflow:visible;visibility:visible;opacity:1;isolation:auto;mix-blend-mode:normal;color-interpolation:sRGB;color-interpolation-filters:linearRGB;solid-color:#000000;solid-opacity:1;fill:#333333;fill-opacity:1;fill-rule:evenodd;stroke:none;color-rendering:auto;image-rendering:auto;shape-rendering:auto;text-rendering:auto;enable-background:accumulate"
     d="m 137.81122,22.756736 c -1.39705,-0.01165 -2.60521,0.04383 -3.44136,0.04383 -0.83616,0 -2.1578,-0.03487 -3.70179,0.01052 -4.36379,0.15826 -9.87273,1.177844 -12.31479,4.574734 -0.97267,2.028847 -1.07938,4.297967 -0.99973,6.350973 l 5.50374,0.308606 c 4.0706,-0.102605 5.96172,7.101055 -1.48212,9.461582 C 103.34049,49.225987 95.509401,57.51296 95.141132,69.340471 87.118923,73.07474 79.965822,76.649593 75.12565,81.858305 74.48529,92.395799 74.097472,105.77773 73.963381,116.31523 43.695165,77.60277 28.747133,69.465762 -0.11591666,75.761582 15.205879,80.739866 25.580733,90.323216 31.946953,104.74074 c 6.36621,14.41752 8.724538,33.67061 16.177373,51.41623 6.520219,15.5251 21.100152,27.3323 32.791691,32.77888 4.834286,15.76065 11.59958,28.67664 20.995983,35.18109 -3.168247,6.28814 14.844,8.99535 33.28106,8.60064 18.43697,0.39471 36.44755,-2.3125 33.27932,-8.60064 14.21033,-11.73941 22.65602,-31.68019 23.96019,-50.16251 12.26831,-3.17752 27.11262,-12.14978 38.3164,-22.36692 11.20378,-10.21716 25.79518,-28.41207 25.11198,-56.611694 -0.40115,-8.375883 -2.49156,-16.387958 -7.5626,-22.563311 -3.52304,-3.967804 -7.50682,-6.811723 -12.161,-8.663765 -9.51012,-3.659491 -19.93987,-2.050187 -27.81927,3.164966 -4.87888,3.290954 -9.54251,8.049438 -14.06433,14.087169 -4.66885,-5.031903 -11.21901,-8.154564 -18.90039,-11.560457 l 0,-0.03683 c -0.22683,-12.415813 -11.2778,-20.390096 -28.35935,-26.098255 -7.50243,-2.507131 -4.18643,-9.145002 -0.74105,-9.23188 l 5.13495,-0.126248 c 0.0126,-2.450577 -0.23217,-5.235884 -1.51007,-7.012021 -3.49274,-3.414934 -7.78577,-4.134643 -12.06662,-4.178456 z m 86.28224,49.440095 c 1.33333,0.01196 2.70803,0.154496 4.13872,0.438361 1.51398,0.307665 2.96813,0.796026 4.23486,1.502702 12.71389,7.210792 16.46891,34.629426 3.13375,53.969246 -2.30569,3.3439 -4.90342,6.4856 -7.68146,9.41599 -9.90618,10.44945 -22.25203,18.05155 -33.14124,21.13951 2.64828,-23.89472 1.50663,-47.19474 1.17101,-63.159043 5.54577,-9.603156 11.61082,-18.904636 21.758,-22.31081 2.05809,-0.670232 4.16414,-1.015882 6.38636,-0.995956 z"
     id="path4841"
     inkscape:connector-curvature="0" />
</svg>
