<?xml version="1.0" encoding="UTF-8" standalone="no"?>
<svg
   xmlns:dc="http://purl.org/dc/elements/1.1/"
   xmlns:cc="http://creativecommons.org/ns#"
   xmlns:rdf="http://www.w3.org/1999/02/22-rdf-syntax-ns#"
   xmlns="http://www.w3.org/2000/svg"
   xmlns:sodipodi="http://sodipodi.sourceforge.net/DTD/sodipodi-0.dtd"
   xmlns:inkscape="http://www.inkscape.org/namespaces/inkscape"
   enable-background="new 0 0 32 32"
   height="16"
   id="svg2"
   version="1.1"
   viewBox="0 0 16 16"
   width="16"
   xml:space="preserve"
   inkscape:version="0.91 r13725"
   sodipodi:docname="trayicon2.svg"
   inkscape:export-filename="/home/waffles/git/tepid/trayicon32.png"
   inkscape:export-xdpi="180"
   inkscape:export-ydpi="180"><metadata
     id="metadata4198"><rdf:RDF><cc:Work
         rdf:about=""><dc:format>image/svg+xml</dc:format><dc:type
           rdf:resource="http://purl.org/dc/dcmitype/StillImage" /><dc:title></dc:title></cc:Work></rdf:RDF></metadata><defs
     id="defs4196" /><sodipodi:namedview
     pagecolor="#ffffff"
     bordercolor="#666666"
     borderopacity="1"
     objecttolerance="10"
     gridtolerance="10"
     guidetolerance="10"
     inkscape:pageopacity="0"
     inkscape:pageshadow="2"
     inkscape:window-width="1918"
     inkscape:window-height="972"
     id="namedview4194"
     showgrid="false"
     inkscape:zoom="24.125"
     inkscape:cx="-14.100113"
     inkscape:cy="8.3017294"
     inkscape:window-x="0"
     inkscape:window-y="24"
     inkscape:window-maximized="1"
     inkscape:current-layer="svg2"
     showguides="false" /><path
     style="color:#000000;clip-rule:nonzero;display:inline;overflow:visible;visibility:visible;opacity:1;isolation:auto;mix-blend-mode:normal;color-interpolation:sRGB;color-interpolation-filters:linearRGB;solid-color:#000000;solid-opacity:1;fill:#333333;fill-opacity:1;fill-rule:evenodd;stroke:none;stroke-width:0.1;stroke-linecap:butt;stroke-linejoin:miter;stroke-miterlimit:4;stroke-dasharray:none;stroke-dashoffset:0;stroke-opacity:1;color-rendering:auto;image-rendering:auto;shape-rendering:auto;text-rendering:auto;enable-background:accumulate"
     d="M 4.2625216,0 C 3.2272401,0 2.474401,0.77162698 2.3937824,2 L 2,8 C 0.892,8 0,8.892 0,10 l 0,4 1,0 -1,2 16,0 -1,-2 1,0 0,-4 C 16,8.892 15.108,8 14,8 L 13.606218,2 C 13.5256,0.77164118 12.77276,0 11.737478,0 Z"
     id="rect4611"
     inkscape:connector-curvature="0"
     sodipodi:nodetypes="ssccccccccccsss" /><path
     style="color:#000000;clip-rule:nonzero;display:inline;overflow:visible;visibility:visible;opacity:1;isolation:auto;mix-blend-mode:normal;color-interpolation:sRGB;color-interpolation-filters:linearRGB;solid-color:#000000;solid-opacity:1;fill:#ffffff;fill-opacity:1;fill-rule:evenodd;stroke:none;stroke-width:0.1;stroke-linecap:butt;stroke-linejoin:miter;stroke-miterlimit:4;stroke-dasharray:none;stroke-dashoffset:0;stroke-opacity:1;color-rendering:auto;image-rendering:auto;shape-rendering:auto;text-rendering:auto;enable-background:accumulate"
     d="M 4.2818653,1 C 3.7669036,1 3.3848054,1.4469902 3.3523316,2 L 3,8 13,8 12.647668,2 C 12.615195,1.4469902 12.233096,1 11.718135,1 Z"
     id="rect4516"
     inkscape:connector-curvature="0"
     sodipodi:nodetypes="ssccsss" /><path
     d="m 2.5,13 11,0 1,2 -13,0 z"
     id="path4192"
     style="fill:#ffffff"
     inkscape:connector-curvature="0"
     sodipodi:nodetypes="ccccc" /><rect
     style="color:#000000;clip-rule:nonzero;display:inline;overflow:visible;visibility:visible;opacity:1;isolation:auto;mix-blend-mode:normal;color-interpolation:sRGB;color-interpolation-filters:linearRGB;solid-color:#000000;solid-opacity:1;fill:#ff0000;fill-opacity:1;fill-rule:evenodd;stroke:none;color-rendering:auto;image-rendering:auto;shape-rendering:auto;text-rendering:auto;enable-background:accumulate"
     id="rect4221"
     width="1.5"
     height="1.5"
     x="13"
     y="9.5"
     ry="0.75" /><path
     sodipodi:nodetypes="sscccccs"
     inkscape:connector-curvature="0"
     id="path4201"
     d="m 5.6400206,4.9963898 c -0.4739566,0 -0.8581743,0.3842178 -0.8581743,0.8581744 l 0,2.1454358 0.8581743,0 0,-1.3333549 4.19e-4,-0.8108237 0.6088512,-0.6054991 C 6.093798,5.093546 5.8782755,4.9963898 5.6400206,4.9963898 Z"
     style="color:#000000;clip-rule:nonzero;display:inline;overflow:visible;visibility:visible;opacity:1;isolation:auto;mix-blend-mode:normal;color-interpolation:sRGB;color-interpolation-filters:linearRGB;solid-color:#000000;solid-opacity:1;fill:#bf360c;fill-opacity:1;fill-rule:evenodd;stroke:none;stroke-width:0.1;stroke-linecap:butt;stroke-linejoin:miter;stroke-miterlimit:4;stroke-dasharray:none;stroke-dashoffset:0;stroke-opacity:1;color-rendering:auto;image-rendering:auto;shape-rendering:auto;text-rendering:auto;enable-background:accumulate" /><path
     sodipodi:nodetypes="cccssccccccscccscccccccccc"
     inkscape:connector-curvature="0"
     id="rect4454-5"
     d="M 10.002966,1.4999999 6.816658,4.6863073 5.6391825,5.8562402 6.2476147,6.4537775 C 6.7815968,6.978198 6.9678418,6.9455333 7.2683728,6.6532361 l 0.3058922,-0.2975114 1.2126739,1.2151881 0.00419,-0.00419 2.4228336,-2.4228337 0.0042,-0.00419 -0.606756,-0.6067561 c 0.444479,-0.4469626 0.565664,-0.96376 0.540549,-1.376096 C 11.126755,2.7431843 10.861539,2.3585865 10.002966,1.4999999 Z M 7.8784811,1.803378 7.2717251,2.4109721 c -0.3361736,-0.3361788 -0.8773385,-0.3361787 -1.2135121,0 -0.3361735,0.3361787 -0.3361736,0.8773334 0,1.2135121 L 5.4514569,4.2312403 6.058213,4.8379963 8.4852372,2.4109721 Z m 2.1236469,0.9109721 c 0.172662,0.1726651 0.251492,0.409005 0.251418,0.6067561 -7.1e-5,0.1962992 -0.04334,0.3955376 -0.248904,0.6034038 L 9.3978853,3.318592 Z"
     style="color:#000000;clip-rule:nonzero;display:inline;overflow:visible;visibility:visible;opacity:1;isolation:auto;mix-blend-mode:normal;color-interpolation:sRGB;color-interpolation-filters:linearRGB;solid-color:#000000;solid-opacity:1;fill:#4e9a21;fill-opacity:1;fill-rule:evenodd;stroke:none;stroke-width:0.1;stroke-miterlimit:4;stroke-dasharray:none;color-rendering:auto;image-rendering:auto;shape-rendering:auto;text-rendering:auto;enable-background:accumulate" /></svg>